# xmcd
#
# Track frame offsets: 
#        150
#        15240
#        35958
#        57136
#        72464
#        89147
#        98393
#        112500
#        126506
#        139304
#        162389
#        175903
#        194946
#        211411
#        229088
#        245159
#        264372
#        276284
#        290913
#        299686
#        311968
#        322708
#        327919
#
# Disc length: 4508 seconds
#
# Revision: 0
# Processed by: cddbd v1.5.2PL0 Copyright (c) Steve Scherf et al.
# Submitted via: ExactAudioCopy v1.3
#
DISCID=70119a17
DTITLE=South Central Bluegrass - Faded Memories
DYEAR=2001
DGENRE=Bluegrass
TTITLE0=We Can't Return To The Home Place
TTITLE1=Coalminers Gold
TTITLE2=Ballad Of Hobie Young
TTITLE3=Our Love Will Never End
TTITLE4=Come Home Children
TTITLE5=Lost Lonesome And Blue
TTITLE6=South Central Breakdown
TTITLE7=Don't
TTITLE8=Daddy Please
TTITLE9=I Pressed Through The Crowd
TTITLE10=I Need A Song
TTITLE11=When They Were Young
TTITLE12=West Virginia Memories
TTITLE13=Save All Your Love
TTITLE14=Bootleg John
TTITLE15=From Craddle To Cross To Crown
TTITLE16=I'll Have To Make It On My Own
TTITLE17=Let Those Brown Eyes Smile At Me
TTITLE18=Heartbroke And Lonesome
TTITLE19=Taxes Troubles And Heartaches
TTITLE20=Breakin' It Down
TTITLE21=Psalms
TTITLE22=Whitewater Creek
EXTD=
EXTT0=
EXTT1=
EXTT2=
EXTT3=
EXTT4=
EXTT5=
EXTT6=
EXTT7=
EXTT8=
EXTT9=
EXTT10=
EXTT11=
EXTT12=
EXTT13=
EXTT14=
EXTT15=
EXTT16=
EXTT17=
EXTT18=
EXTT19=
EXTT20=
EXTT21=
EXTT22=
PLAYORDER=
